# xmcd
#
# Track frame offsets:
#	182
#	12290
#	24090
#	34077
#	47390
#	59837
#	73342
#	85957
#	98480
#	110870
#	123185
#
# Disc length: 1782
#
# Revision: 4
# Processed by: cddbd v1.5.1PL0 Copyright (c) Steve Scherf et al.
# Submitted via: Media_Universe 3.0
# Normalized: r3:TDELIM( - )
#
DISCID=8c06f40b
DTITLE=Various Artist - The Complete Motown Anthology Disc 2
DYEAR=1900
DGENRE=Motown
TTITLE0=Supremes, The - Come See About Me
TTITLE1=Diana Ross and The Supremes - Baby Love
TTITLE2=Marvellettes, The - Beechwood 4-5789
TTITLE3=Temptations, The - My Girl
TTITLE4=Four Tops - Baby I Need Your Loving
TTITLE5=Jr. Walker and The All Stars - Shotgun
TTITLE6=Marvin Gaye - Can I Get A Witness
TTITLE7=Isley Brothers - This Old Heart of Mine
TTITLE8=Four Tops - I Can't Help Myself (Sugar Pie Honey Bunch)
TTITLE9=Miracles, The - Ooo Baby Baby
TTITLE10=Kim Weston - Drop In The Bucket
EXTD=
EXTT0=
EXTT1=
EXTT2=
EXTT3=
EXTT4=
EXTT5=
EXTT6=
EXTT7=
EXTT8=
EXTT9=
EXTT10=
PLAYORDER=
